<?xml version="1.0" encoding="utf-8"?>
<!-- Generator: Adobe Illustrator 16.0.0, SVG Export Plug-In . SVG Version: 6.00 Build 0)  -->
<!DOCTYPE svg PUBLIC "-//W3C//DTD SVG 1.1//EN" "http://www.w3.org/Graphics/SVG/1.1/DTD/svg11.dtd">
<svg version="1.1" id="Layer_1" xmlns="http://www.w3.org/2000/svg" xmlns:xlink="http://www.w3.org/1999/xlink" x="0px" y="0px"
	 width="512px" height="512px" viewBox="0 0 512 512" enable-background="new 0 0 512 512" xml:space="preserve">
<g>
	<path d="M443.199,271.357c-0.579-2.01-1.785-3.784-3.443-5.062c-14.077-10.851-28.529-16.818-42.853-18.164
		c0,0-1.908-0.307-6.504-0.307s-6.94,0.299-6.94,0.299c-13.813,1.629-27.643,7.711-41.216,18.172
		c-1.658,1.277-2.864,3.052-3.443,5.062c-6.661,23.09-8.439,45.242-5.596,69.712c2.513,21.628,8.472,43.339,15.425,67.442
		c0.58,2.011,1.786,3.785,3.442,5.061c10.659,8.217,24.483,12.741,38.927,12.741c14.443,0,28.269-4.524,38.928-12.739
		c1.658-1.277,2.865-3.052,3.444-5.063c6.953-24.104,12.912-45.814,15.425-67.442C451.639,316.6,449.86,294.447,443.199,271.357z
		 M399.601,311.457c0,4.751-3.851,8.602-8.601,8.602c-4.75,0-8.6-3.851-8.6-8.602v-35.875c0-4.75,3.85-8.601,8.6-8.601
		c4.75,0,8.601,3.851,8.601,8.601V311.457z"/>
	<path d="M325.544,403.258h-15.51l-12.799-43.521h26.126c-0.816-4.667-1.514-9.329-2.058-14.008
		c-1.649-14.197-1.847-27.68-0.577-40.992H91.9V112.758h310v123.237c10.099,1.013,20.13,3.962,30,8.795V97.758
		c0-8.284-6.716-15-15-15h-340c-8.284,0-15,6.716-15,15v246.979c0,8.284,6.716,15,15,15h119.664l-12.799,43.521h-15.508
		c-3.938,0-7.131,3.192-7.131,7.13v11.724c0,3.938,3.193,7.131,7.131,7.131h157.287c3.938,0,7.129-3.192,7.129-7.131v-11.724
		C332.673,406.45,329.482,403.258,325.544,403.258z"/>
</g>
</svg>
