<?xml version="1.0" encoding="iso-8859-1"?>
<!-- Generator: Adobe Illustrator 17.1.0, SVG Export Plug-In . SVG Version: 6.00 Build 0)  -->
<!DOCTYPE svg PUBLIC "-//W3C//DTD SVG 1.1//EN" "http://www.w3.org/Graphics/SVG/1.1/DTD/svg11.dtd">
<svg version="1.1" id="Capa_1" xmlns="http://www.w3.org/2000/svg" xmlns:xlink="http://www.w3.org/1999/xlink" x="0px" y="0px"
	 viewBox="0 0 100 100" style="enable-background:new 0 0 100 100;" xml:space="preserve">
<g>
	<path d="M71.519,52.399c0.078-0.251,0.132-0.512,0.132-0.788c0-1.475-1.2-2.675-2.675-2.675H35.592c-1.475,0-2.675,1.2-2.675,2.675
		c0,0.276,0.054,0.537,0.132,0.788H71.519z"/>
	<path d="M85.293,57.958h-8.517h-0.52h-0.522c0.143-0.373,0.229-0.773,0.229-1.195c0-1.855-1.509-3.364-3.364-3.364h-0.433h-0.568
		h-0.647H33.617H32.97h-0.568h-0.433c-1.855,0-3.364,1.509-3.364,3.364c0,0.422,0.087,0.823,0.229,1.195h-0.521h-0.521h-1.909
		C26.113,56.831,25.489,55.5,24,55.5s-2.113,1.331-1.883,2.458h-2.841c-1.598,0-2.894,1.296-2.894,2.894v10.206
		c-7.818,1.656-10.88,10.205-3.708,15.776c3.747,2.91,9.136,2.638,13.585,2.469c7.107-0.269,12.955,1.614,17.557,7.227
		c1.637,1.996,4.45-0.851,2.829-2.828c-3.736-4.557-8.669-7.371-14.499-8.244c-3.116-0.466-6.333-0.112-9.466-0.052
		c-1.835,0.035-3.608-0.233-5.379-0.685c-5.648-1.44-5.79-7.958-0.919-9.557v2.089c0,1.598,1.296,2.894,2.894,2.894h66.017
		c1.598,0,2.894-1.296,2.894-2.894v-16.4C88.187,59.254,86.891,57.958,85.293,57.958z"/>
	<path d="M44.419,28.537l3.333,15.942h-6.707c-1.181,0-2.138,0.957-2.138,2.138c0,0.501,0.179,0.955,0.467,1.319h25.82
		c0.288-0.364,0.467-0.819,0.467-1.319c0-1.181-0.957-2.138-2.138-2.138h-7.601l-3.712-17.76c3.385-2.15,5.638-5.923,5.638-10.229
		c0-6.694-5.427-12.121-12.122-12.121c-6.694,0-12.121,5.427-12.121,12.121C33.606,22.741,38.341,27.884,44.419,28.537z
		 M49.682,9.549c3.313,1.694,4.443,5.712,3.001,9.014c-0.872,1.997-3.789,0.271-2.924-1.709c0.733-1.68-0.26-3.6-1.786-4.38
		C46.028,11.479,47.742,8.557,49.682,9.549z"/>
</g>
</svg>
