<?xml version="1.0" encoding="utf-8"?>
<!-- Generator: Adobe Illustrator 17.1.0, SVG Export Plug-In . SVG Version: 6.00 Build 0)  -->
<!DOCTYPE svg PUBLIC "-//W3C//DTD SVG 1.1//EN" "http://www.w3.org/Graphics/SVG/1.1/DTD/svg11.dtd">
<svg version="1.1" id="Layer_1" xmlns="http://www.w3.org/2000/svg" xmlns:xlink="http://www.w3.org/1999/xlink" x="0px" y="0px"
	 viewBox="0 0 300 300" enable-background="new 0 0 300 300" xml:space="preserve">
<g>
	<path fill="#050505" d="M21.531,256.471c-7.001,6.997-7.001,18.348,0,25.344c3.5,3.501,8.087,5.251,12.672,5.251
		c4.586,0,9.172-1.75,12.672-5.251l58.994-58.993l-25.345-25.34L21.531,256.471z"/>
	<path fill="#050505" d="M286.176,80.278c0-6.306-2.451-12.239-6.914-16.698l-39.513-39.508c-8.927-8.927-24.487-8.922-33.396,0.004
		l-37.324,37.329c-2.81-2.612-6.38-3.96-9.959-3.96c-3.746,0-7.5,1.431-10.362,4.292L69.77,140.663
		c-2.748,2.747-4.288,6.476-4.288,10.361c0,3.886,1.54,7.614,4.288,10.362l72.191,72.178c2.861,2.861,6.607,4.292,10.361,4.292
		c3.755,0,7.501-1.431,10.362-4.292l78.93-78.926c2.748-2.748,4.287-6.476,4.287-10.361c0-3.715-1.443-7.264-3.965-9.972
		l37.326-37.329C283.725,92.517,286.176,86.584,286.176,80.278z M266.589,84.304L229.3,121.598l-47.564-47.555l37.299-37.299
		c2.117-2.126,5.907-2.131,8.042,0l39.513,39.508C268.812,78.471,268.812,82.085,266.589,84.304z"/>
	<path fill="#050505" d="M206.108,60.696c-3.938,3.943-3.938,10.34,0,14.274c3.939,3.942,10.326,3.942,14.273,0
		c3.938-3.934,3.938-10.331,0-14.274C216.435,56.759,210.047,56.759,206.108,60.696z"/>
	<path fill="#050505" d="M226.56,81.157c-3.946,3.943-3.946,10.335,0,14.278c3.939,3.942,10.336,3.942,14.274,0
		c3.939-3.943,3.939-10.335,0-14.278C236.895,77.21,230.499,77.21,226.56,81.157z"/>
</g>
</svg>
